# xmcd CD database file
#
# Track frame offsets:
#	150
#	34504
#	59890
#	82635
#	96496
#	115792
#	133107
#	162042
#	181220
#	238688
#	269176
#
# Disc length: 3914 seconds
#
# Revision: 0
# Processed by: cddbd v1.5.1PL0 Copyright (c) Steve Scherf et al.
# Submitted via: CDex 1.51
#
DISCID=950f480b
DTITLE=Los Cabrones - Los Cabrones
DYEAR=2004
DGENRE=Jazz
TTITLE0=Mucho Mucho
TTITLE1=Hola Que Tal
TTITLE2=Nigh Cat Night Cap
TTITLE3=Psycho Cabron
TTITLE4=Fatarmin
TTITLE5=Concussion
TTITLE6=Nikko Bolero
TTITLE7=Duty Free
TTITLE8=Cheese
TTITLE9=Hola Que Tal (No Comply Remix)
TTITLE10=Concussion (Simon Digby Remix)
EXTD=YEAR: 2004
EXTT0=
EXTT1=
EXTT2=
EXTT3=
EXTT4=
EXTT5=
EXTT6=
EXTT7=
EXTT8=
EXTT9=
EXTT10=
PLAYORDER=
